<mxfile host="Electron" agent="Mozilla/5.0 (Windows NT 10.0; Win64; x64) AppleWebKit/537.36 (KHTML, like Gecko) draw.io/24.7.17 Chrome/128.0.6613.36 Electron/32.0.1 Safari/537.36" version="24.7.17">
  <diagram name="第 1 页" id="5m8nxLuPW8G8QiXSEz9A">
    <mxGraphModel dx="462" dy="749" grid="0" gridSize="10" guides="1" tooltips="1" connect="1" arrows="1" fold="1" page="0" pageScale="1" pageWidth="827" pageHeight="1169" math="0" shadow="0">
      <root>
        <mxCell id="0" />
        <mxCell id="1" parent="0" />
        <mxCell id="BprpEDHDr-_ThS3MmrlJ-3" style="edgeStyle=orthogonalEdgeStyle;rounded=0;orthogonalLoop=1;jettySize=auto;html=1;" edge="1" parent="1" source="BprpEDHDr-_ThS3MmrlJ-1" target="BprpEDHDr-_ThS3MmrlJ-2">
          <mxGeometry relative="1" as="geometry" />
        </mxCell>
        <mxCell id="BprpEDHDr-_ThS3MmrlJ-1" value="Input" style="rounded=0;whiteSpace=wrap;html=1;fillColor=#fff2cc;strokeColor=#d6b656;" vertex="1" parent="1">
          <mxGeometry x="169" y="67" width="80" height="40" as="geometry" />
        </mxCell>
        <mxCell id="BprpEDHDr-_ThS3MmrlJ-2" value="Reshape" style="rounded=0;whiteSpace=wrap;html=1;fillColor=#dae8fc;strokeColor=#6c8ebf;" vertex="1" parent="1">
          <mxGeometry x="169" y="142" width="80" height="40" as="geometry" />
        </mxCell>
        <mxCell id="BprpEDHDr-_ThS3MmrlJ-9" style="edgeStyle=orthogonalEdgeStyle;rounded=0;orthogonalLoop=1;jettySize=auto;html=1;entryX=0.5;entryY=0;entryDx=0;entryDy=0;" edge="1" parent="1" source="BprpEDHDr-_ThS3MmrlJ-4" target="BprpEDHDr-_ThS3MmrlJ-8">
          <mxGeometry relative="1" as="geometry" />
        </mxCell>
        <mxCell id="BprpEDHDr-_ThS3MmrlJ-4" value="BiLSTM&lt;div&gt;(units = 64)&lt;/div&gt;" style="rounded=0;whiteSpace=wrap;html=1;fillColor=#dae8fc;strokeColor=#6c8ebf;" vertex="1" parent="1">
          <mxGeometry x="159" y="308" width="120" height="40" as="geometry" />
        </mxCell>
        <mxCell id="BprpEDHDr-_ThS3MmrlJ-6" value="" style="shape=flexArrow;endArrow=classic;html=1;rounded=0;exitX=0.25;exitY=1;exitDx=0;exitDy=0;entryX=0.25;entryY=0;entryDx=0;entryDy=0;" edge="1" parent="1" source="BprpEDHDr-_ThS3MmrlJ-2" target="BprpEDHDr-_ThS3MmrlJ-4">
          <mxGeometry width="50" height="50" relative="1" as="geometry">
            <mxPoint x="82" y="375" as="sourcePoint" />
            <mxPoint x="82" y="445" as="targetPoint" />
          </mxGeometry>
        </mxCell>
        <mxCell id="BprpEDHDr-_ThS3MmrlJ-7" value="" style="shape=flexArrow;endArrow=classic;html=1;rounded=0;exitX=0.25;exitY=1;exitDx=0;exitDy=0;entryX=0.25;entryY=0;entryDx=0;entryDy=0;" edge="1" parent="1">
          <mxGeometry width="50" height="50" relative="1" as="geometry">
            <mxPoint x="229" y="182" as="sourcePoint" />
            <mxPoint x="229" y="308" as="targetPoint" />
          </mxGeometry>
        </mxCell>
        <mxCell id="BprpEDHDr-_ThS3MmrlJ-8" value="Output" style="rounded=0;whiteSpace=wrap;html=1;fillColor=#e1d5e7;strokeColor=#9673a6;" vertex="1" parent="1">
          <mxGeometry x="179" y="396" width="80" height="40" as="geometry" />
        </mxCell>
      </root>
    </mxGraphModel>
  </diagram>
</mxfile>
